<?xml version="1.0" standalone="no"?>
<!DOCTYPE svg PUBLIC "-//W3C//DTD SVG 20010904//EN"
 "http://www.w3.org/TR/2001/REC-SVG-20010904/DTD/svg10.dtd">
<svg version="1.0" xmlns="http://www.w3.org/2000/svg"
 width="512.000000pt" height="512.000000pt" viewBox="0 0 512.000000 512.000000"
 preserveAspectRatio="xMidYMid meet">
<metadata>
Created by potrace 1.16, written by Peter Selinger 2001-2019
</metadata>
<g transform="translate(0.000000,512.000000) scale(0.100000,-0.100000)"
fill="#000000" stroke="none">
<path d="M2530 4978 c-25 -11 -85 -44 -135 -73 -49 -29 -187 -105 -305 -170
-118 -65 -235 -129 -260 -143 -74 -41 -449 -246 -535 -292 -104 -56 -193 -118
-199 -139 -33 -114 -139 -593 -161 -731 -35 -220 -1 -512 95 -822 28 -91 31
-111 25 -173 -9 -103 -12 -110 -61 -145 -56 -40 -74 -75 -74 -146 0 -103 85
-252 239 -416 67 -71 76 -78 122 -84 27 -4 52 -12 57 -18 10 -14 47 -173 67
-290 20 -119 19 -184 -6 -302 -22 -108 -20 -164 11 -224 21 -41 104 -122 175
-170 94 -63 127 -95 258 -245 213 -241 227 -256 292 -286 79 -38 172 -39 300
-4 104 29 195 32 275 10 140 -39 192 -46 244 -35 109 23 145 50 293 218 180
206 246 271 376 371 132 102 167 153 167 246 0 33 -7 87 -15 120 -28 115 -20
215 37 490 l23 110 47 6 c59 9 96 37 184 139 124 145 194 281 194 378 l0 56
-65 61 -66 61 -6 85 c-5 76 -2 98 25 195 103 365 132 564 107 734 -20 130 -39
241 -55 320 -19 88 -107 469 -116 497 -5 17 -113 86 -239 153 -149 79 -556
304 -850 470 -257 144 -387 211 -409 209 -6 0 -31 -10 -56 -21z m146 -191 c43
-45 180 -187 302 -315 l224 -232 -618 0 -618 0 310 314 c170 172 312 314 315
315 3 0 41 -36 85 -82z m-336 -40 c-8 -7 -129 -125 -268 -263 l-253 -249 -232
-11 c-128 -6 -233 -10 -235 -8 -2 1 41 25 95 54 171 92 542 295 718 393 164
92 205 111 175 84z m855 -184 c160 -88 362 -200 450 -248 88 -48 164 -91 170
-96 5 -5 -4 -9 -25 -9 -52 0 -359 19 -406 25 -38 5 -58 23 -295 267 -140 144
-238 253 -219 241 19 -11 166 -92 325 -180z m-428 -433 l444 0 -28 -47 c-158
-274 -555 -927 -579 -952 -13 -15 -71 70 -326 479 -208 335 -318 516 -318 526
0 4 82 4 182 1 99 -4 381 -7 625 -7z m-1038 -62 c-17 -35 -124 -227 -237 -427
l-207 -365 -7 65 c-4 35 -19 170 -33 299 -14 129 -32 284 -41 343 -9 60 -14
110 -12 112 2 2 76 9 163 15 88 6 180 12 205 13 25 2 80 4 123 5 l77 2 -31
-62z m2009 45 c214 -14 252 -19 252 -32 0 -9 -13 -119 -29 -246 -16 -126 -35
-282 -41 -345 -7 -63 -15 -137 -19 -165 l-6 -49 -165 289 c-90 160 -199 352
-242 428 l-77 137 37 0 c20 0 151 -7 290 -17z m-1802 -135 c178 -296 599 -963
632 -1000 8 -10 18 -18 21 -18 3 0 34 35 68 78 58 73 149 219 490 787 79 132
150 246 157 253 11 12 35 -24 144 -215 121 -213 290 -513 353 -628 15 -27 40
-88 55 -135 14 -47 52 -143 83 -215 l56 -130 -3 -155 c-2 -164 8 -276 34 -350
12 -37 22 -49 57 -65 23 -11 43 -27 45 -36 5 -29 -38 -127 -84 -190 -25 -33
-47 -59 -50 -57 -2 3 5 26 17 52 24 55 20 86 -5 37 -27 -52 -171 -196 -216
-216 l-41 -18 -97 32 c-53 18 -104 35 -112 37 -11 4 -9 9 10 20 24 15 23 15
-22 11 -34 -3 -66 -16 -111 -46 -123 -80 -176 -178 -177 -326 -1 -155 -29
-149 -49 10 -7 50 -16 94 -20 98 -5 5 -10 -42 -13 -103 -5 -128 -17 -151 -65
-134 -24 8 -28 15 -31 54 -1 25 -5 60 -8 79 -9 57 -28 19 -35 -70 -6 -92 -17
-109 -50 -85 -13 9 -41 16 -62 16 l-39 0 6 53 c5 35 2 63 -7 85 -19 46 -27 30
-27 -53 0 -45 -5 -78 -14 -90 -13 -18 -15 -18 -39 -2 -32 21 -73 21 -107 2
-32 -18 -88 -18 -120 0 -14 8 -47 14 -74 15 -40 0 -55 -5 -77 -26 l-27 -26
-21 21 c-18 18 -21 33 -21 95 0 81 -15 110 -25 49 -20 -116 -30 -129 -101
-135 l-39 -3 -6 78 c-6 73 -20 110 -35 94 -3 -3 -9 -35 -11 -71 -6 -70 -18
-89 -55 -84 -36 5 -48 43 -48 153 0 75 -3 95 -11 82 -8 -14 -38 -174 -39 -209
0 -5 -4 -8 -9 -8 -16 0 -23 34 -22 110 3 163 -75 284 -237 369 -13 7 -37 10
-55 8 -30 -4 -31 -4 -8 -12 19 -7 3 -15 -95 -47 l-119 -39 -35 18 c-43 22
-139 111 -191 176 -39 49 -55 41 -24 -13 24 -42 17 -46 -21 -9 -47 45 -80 103
-94 163 -14 63 -7 80 38 98 36 14 40 20 61 93 21 70 24 102 26 275 l1 195 43
95 c24 52 62 151 85 220 36 109 69 175 260 515 229 408 285 505 291 505 2 0
34 -51 71 -112z m-776 -483 c12 -132 20 -262 18 -290 l-3 -50 -17 65 c-10 36
-23 85 -29 110 -9 38 -12 42 -21 26 -10 -18 -6 -200 7 -286 l5 -35 -15 32
c-21 45 -45 193 -45 274 0 37 14 148 30 246 17 98 30 180 31 183 0 3 4 -4 9
-15 4 -11 18 -128 30 -260z m2935 59 c14 -88 25 -183 25 -210 0 -72 -27 -237
-45 -276 l-15 -33 5 43 c19 153 17 282 -4 282 -4 0 -18 -45 -31 -101 -42 -177
-43 -147 -10 211 11 113 23 228 26 255 7 48 7 49 15 20 5 -16 20 -102 34 -191z
m-2400 -2339 c24 -111 69 -233 126 -347 61 -121 84 -131 60 -25 -5 20 -5 37 0
37 4 0 26 -17 47 -37 27 -26 45 -56 57 -95 21 -66 40 -67 30 -2 -6 43 -6 44
22 44 20 0 36 -10 54 -33 26 -32 29 -33 91 -30 58 3 67 1 88 -22 28 -29 86
-34 104 -9 11 14 17 11 55 -20 50 -42 88 -46 131 -15 l29 22 32 -27 c32 -28
46 -28 99 -1 14 7 36 26 49 41 l24 28 15 -22 c20 -31 72 -29 110 3 26 21 35
24 81 18 51 -6 53 -5 82 31 23 27 38 36 60 36 l30 0 -7 -50 c-8 -63 6 -65 28
-2 24 64 50 105 85 130 l29 21 -4 -62 -3 -62 47 85 c25 47 57 109 71 139 33
73 80 267 99 404 23 169 38 161 31 -18 -3 -86 -1 -141 3 -130 5 11 29 74 55
140 36 95 44 111 40 75 -49 -415 -63 -580 -47 -580 5 0 18 23 28 50 21 60 34
64 34 12 0 -46 -34 -97 -106 -161 -73 -64 -84 -68 -84 -32 0 67 -11 62 -63
-24 -95 -160 -316 -434 -388 -482 -61 -40 -143 -42 -265 -7 -123 35 -208 36
-314 4 -157 -47 -237 -38 -320 37 -85 77 -281 329 -367 474 l-32 54 -1 -47 c0
-27 -4 -48 -9 -48 -18 0 -140 102 -164 138 -28 40 -30 48 -28 105 1 52 14 46
35 -18 9 -30 21 -57 26 -60 13 -8 13 69 0 155 -5 36 -16 137 -25 225 -8 88
-17 180 -20 205 -6 62 5 39 55 -112 23 -71 44 -128 47 -128 3 0 2 65 -2 144
-9 184 4 210 26 51 9 -66 24 -156 34 -200z m200 218 c-3 -13 -10 -21 -15 -18
-14 8 -12 45 3 86 l12 34 3 -39 c2 -22 1 -50 -3 -63z m1411 1 c-4 -13 -11 -22
-16 -19 -12 7 -13 98 -2 109 11 11 25 -60 18 -90z m9 -168 c7 -45 -8 -96 -31
-103 -10 -3 -10 107 1 135 9 25 24 10 30 -32z m-1421 17 c12 -30 19 -133 10
-133 -15 0 -44 55 -44 82 0 56 21 87 34 51z m628 -3 c39 -30 62 -162 42 -238
-12 -42 -117 -68 -156 -38 -15 11 -18 29 -18 97 0 97 11 143 42 176 26 28 57
29 90 3z m231 -5 c39 -40 53 -112 37 -197 -11 -56 -18 -72 -36 -80 -33 -15
-112 -1 -124 22 -16 30 -12 186 5 220 17 33 51 60 76 60 9 0 28 -11 42 -25z
m-761 -76 c1 -27 2 -59 2 -71 1 -34 -21 -32 -40 4 -17 34 -22 99 -9 139 l8 23
18 -23 c12 -15 20 -41 21 -72z m328 33 c5 -20 10 -72 10 -114 0 -67 -3 -79
-20 -88 -16 -9 -25 -6 -44 13 -22 22 -26 23 -39 10 -30 -30 -40 -5 -34 81 6
95 20 132 56 144 36 13 58 -2 71 -46z m-193 13 c14 -30 15 -43 4 -105 -7 -38
-18 -73 -24 -77 -5 -3 -24 9 -40 27 -28 32 -29 36 -23 99 4 45 11 70 23 79 27
20 42 14 60 -23z m825 21 c10 -7 22 -25 28 -40 13 -36 13 -152 -1 -177 -10
-19 -12 -19 -29 -4 -16 14 -18 14 -23 0 -7 -16 -52 -21 -62 -5 -3 5 -8 40 -11
77 -5 55 -2 77 15 116 22 50 47 61 83 33z m170 -10 c4 -6 8 -41 8 -78 0 -60
-2 -69 -27 -88 -14 -11 -30 -17 -34 -13 -5 5 -13 42 -19 82 -9 63 -8 78 5 98
12 18 21 22 38 17 12 -4 25 -12 29 -18z m114 -2 c15 -58 -16 -154 -49 -154
-13 0 -1 149 14 166 17 21 28 17 35 -12z m64 -263 c-11 -43 -30 -56 -30 -21 0
11 7 37 17 58 20 46 29 22 13 -37z m-1399 19 c9 -29 9 -44 1 -52 -7 -7 -13 0
-21 28 -13 48 -14 64 -1 64 5 0 15 -18 21 -40z m106 -41 c18 -34 16 -78 -2
-86 -22 -8 -26 -2 -32 62 -5 47 -3 57 8 53 8 -2 20 -15 26 -29z m1203 -13 c0
-18 -5 -47 -11 -65 -9 -27 -14 -30 -26 -19 -11 9 -14 25 -10 55 8 73 47 97 47
29z m-105 -38 c-10 -76 -55 -138 -100 -138 -21 0 -25 5 -25 33 0 17 5 48 10
68 11 37 52 85 67 76 5 -3 15 -2 23 4 28 17 32 9 25 -43z m-937 30 c10 -13 32
-115 32 -150 0 -14 -8 -18 -34 -18 -28 0 -38 6 -55 34 -21 34 -43 124 -35 138
8 13 81 9 92 -4z m147 -4 c39 -15 59 -121 33 -179 -14 -32 -28 -32 -60 3 -52
56 -59 107 -22 160 16 23 23 26 49 16z m602 -26 c18 -14 16 -93 -2 -128 -17
-33 -59 -49 -84 -33 -22 14 -19 124 4 160 13 20 22 23 43 18 15 -4 33 -11 39
-17z m-373 -8 c6 -6 11 -45 11 -90 0 -68 -3 -83 -22 -101 -27 -27 -65 -20 -89
16 -37 56 -37 173 -1 189 19 8 88 -1 101 -14z m200 4 c22 -22 20 -99 -4 -151
-21 -48 -61 -73 -88 -56 -46 28 -52 178 -9 208 28 20 81 19 101 -1z"/>
<path d="M3257 3206 c-27 -7 -53 -18 -60 -25 -18 -18 9 -14 99 13 63 20 72 25
44 25 -19 0 -57 -6 -83 -13z"/>
<path d="M1891 3195 c10 -10 189 -53 189 -45 0 11 -46 28 -109 40 -58 11 -87
13 -80 5z"/>
<path d="M3780 3125 c0 -16 5 -37 10 -45 7 -12 10 -8 10 15 0 17 -5 37 -10 45
-7 12 -10 8 -10 -15z"/>
<path d="M2990 3112 c-76 -28 -123 -51 -105 -52 19 0 162 51 181 65 27 21 9
17 -76 -13z"/>
<path d="M2205 3091 c33 -16 76 -32 95 -35 26 -5 19 1 -30 23 -87 40 -145 51
-65 12z"/>
<path d="M1508 2931 c-139 -46 -229 -149 -245 -280 -7 -62 10 -74 27 -18 23
79 78 162 96 144 3 -3 -1 -40 -10 -82 -29 -141 -18 -263 34 -365 50 -99 86
-130 185 -156 74 -20 141 -17 250 11 54 14 100 24 102 21 13 -13 -87 -47 -173
-59 -98 -13 -99 -13 -49 -20 78 -11 218 15 305 55 118 54 184 141 235 310 l26
83 -5 -60 c-6 -75 11 -52 23 32 l9 58 1 -60 c0 -33 -3 -76 -8 -95 -5 -19 -12
-48 -15 -65 l-6 -30 14 25 c8 14 34 72 58 130 35 85 44 99 46 76 5 -37 -19
-107 -79 -236 -35 -76 -42 -98 -26 -79 13 14 27 24 32 23 17 -5 58 68 66 116
4 25 19 79 34 120 14 41 30 97 35 123 11 57 52 100 88 92 31 -7 27 10 -8 35
-22 16 -30 30 -31 53 0 18 -4 41 -8 52 -8 19 -9 18 -21 -7 -7 -14 -18 -24 -25
-22 -7 3 -15 -6 -18 -24 -11 -53 -36 -73 -103 -79 l-61 -5 -78 71 c-111 101
-159 131 -209 131 l-41 0 39 -23 c38 -21 58 -47 37 -47 -5 0 -65 14 -133 31
-160 40 -306 48 -390 20z"/>
<path d="M3114 2924 c-43 -29 -99 -74 -159 -128 -43 -39 -47 -40 -115 -36 -57
2 -85 20 -100 64 -6 20 -16 33 -23 30 -7 -2 -18 10 -26 28 l-13 33 -12 -60
c-9 -47 -15 -60 -31 -63 -23 -4 -45 -29 -45 -50 0 -12 4 -11 20 3 20 18 21 18
55 -15 26 -25 37 -47 45 -89 6 -31 24 -94 40 -141 16 -47 32 -101 34 -121 4
-34 42 -89 61 -89 5 0 17 -8 27 -17 13 -11 3 16 -27 77 -54 111 -78 187 -73
232 3 32 4 31 22 -22 20 -58 87 -202 92 -198 1 2 -4 30 -12 63 -7 33 -13 89
-13 125 l2 65 7 -67 c10 -85 33 -130 25 -48 l-6 55 29 -80 c41 -116 68 -162
126 -220 88 -87 284 -149 406 -127 l45 8 -83 12 c-46 6 -102 21 -125 32 -24
11 -31 18 -17 15 191 -42 282 -43 368 -5 149 66 212 250 167 487 -8 43 -15 85
-15 93 1 31 69 -59 91 -120 19 -53 24 -59 31 -41 9 26 -6 110 -28 153 -9 17
-40 55 -68 83 -69 70 -140 97 -266 103 -84 3 -112 0 -242 -32 -81 -20 -152
-36 -158 -36 -20 0 3 29 36 45 43 20 43 25 0 25 -19 0 -49 -11 -72 -26z"/>
<path d="M2696 2518 c11 -37 43 -94 43 -78 1 18 -36 100 -44 100 -4 0 -3 -10
1 -22z"/>
<path d="M2468 2519 c-4 -7 -13 -31 -22 -51 -9 -21 -14 -38 -11 -38 9 0 46 81
42 93 -2 7 -6 6 -9 -4z"/>
<path d="M2532 2452 c-53 -29 -80 -78 -121 -217 -12 -41 -37 -95 -61 -128 -60
-87 -80 -130 -86 -195 -15 -137 74 -249 175 -222 83 22 101 53 121 201 11 83
23 119 35 108 3 -3 12 -55 21 -115 19 -126 32 -157 76 -180 72 -37 136 -17
185 58 23 33 28 55 31 115 5 87 -3 109 -75 218 -34 53 -58 102 -69 145 -9 36
-29 93 -44 127 -43 95 -111 126 -188 85z"/>
<path d="M1315 2269 c23 -41 59 -80 90 -99 57 -35 51 -17 -15 46 -62 59 -90
79 -75 53z"/>
<path d="M2935 2251 c50 -85 178 -198 195 -171 5 7 16 10 26 6 23 -7 -22 32
-86 76 -25 17 -70 52 -100 77 -54 46 -54 46 -35 12z"/>
<path d="M2193 2227 c-28 -23 -77 -62 -110 -87 -43 -33 -53 -45 -40 -48 9 -2
15 -8 12 -13 -4 -5 -2 -9 4 -9 21 0 147 118 169 158 13 23 22 42 20 42 -2 0
-26 -19 -55 -43z"/>
<path d="M3785 2205 c-61 -56 -66 -63 -38 -54 38 12 113 82 113 104 0 8 -1 15
-2 15 -2 0 -34 -30 -73 -65z"/>
<path d="M1700 1982 c-42 -21 -41 -33 6 -49 48 -17 126 -75 164 -122 39 -51
77 -133 91 -201 11 -50 12 -53 21 -30 5 14 8 59 6 100 -5 81 -29 142 -77 194
l-26 28 30 -15 c43 -22 78 -63 114 -132 l30 -60 -5 50 c-14 126 -65 217 -137
244 -46 18 -177 14 -217 -7z"/>
<path d="M3240 1978 c-58 -30 -98 -104 -106 -198 l-6 -65 32 55 c37 65 65 97
104 117 l28 15 -36 -48 c-56 -74 -80 -185 -56 -264 l7 -25 7 30 c36 146 89
232 185 297 25 18 61 37 80 44 49 16 49 29 1 48 -63 25 -185 22 -240 -6z"/>
<path d="M2175 1920 c7 -75 30 -175 46 -198 16 -26 1 107 -22 185 -25 88 -33
92 -24 13z"/>
<path d="M2981 1918 c-12 -35 -24 -94 -27 -133 -5 -67 -4 -69 10 -43 15 25 51
226 42 235 -2 2 -14 -24 -25 -59z"/>
<path d="M1393 1869 c18 -10 144 -49 159 -49 5 0 8 4 8 8 0 5 -37 19 -82 31
-91 23 -113 26 -85 10z"/>
<path d="M3690 1858 c-60 -18 -98 -38 -74 -38 20 0 148 40 158 50 15 15 -8 11
-84 -12z"/>
<path d="M2577 1723 c-3 -5 -6 -84 -6 -175 -1 -130 2 -168 13 -177 22 -19 25
7 24 182 -1 113 -5 160 -14 167 -7 6 -15 7 -17 3z"/>
<path d="M2393 538 c1 -39 9 -73 16 -80 11 -11 13 -2 8 49 -3 33 -10 69 -16
80 -10 14 -11 4 -8 -49z"/>
<path d="M2776 585 c-12 -32 -19 -145 -9 -145 13 0 33 76 33 124 0 37 -13 48
-24 21z"/>
<path d="M2100 521 c0 -6 16 -29 36 -51 29 -32 43 -40 70 -40 75 0 19 63 -83
94 -14 5 -23 3 -23 -3z"/>
<path d="M2575 496 c-11 -58 15 -106 29 -52 7 28 -3 86 -15 86 -4 0 -11 -15
-14 -34z"/>
<path d="M3010 509 c-31 -13 -90 -57 -90 -69 0 -15 36 -21 63 -11 26 10 62 44
78 74 8 13 6 17 -8 16 -10 0 -29 -5 -43 -10z"/>
</g>
</svg>
